<?xml version="1.0" standalone="yes"?>
<svg width="225" height="225">
<path style="fill:#ffffff; stroke:none;" d="M0 0L0 225L225 225L225 0L0 0z"/>
<path style="fill:#868686; stroke:none;" d="M108 13L108 15L110 13L108 13z"/>
<path style="fill:#343434; stroke:none;" d="M131.667 13.3333L132.333 13.6667L131.667 13.3333z"/>
<path style="fill:#2c2c16; stroke:none;" d="M108 15L108 16L113 16L108 15z"/>
<path style="fill:#9e9e9e; stroke:none;" d="M111 14L112 15L111 14M130 14L131 15L130 14z"/>
<path style="fill:#000000; stroke:none;" d="M131 14L131 15L136 17L131 14z"/>
<path style="fill:#585132; stroke:none;" d="M129 18L132 15L129 18z"/>
<path style="fill:#ffee96; stroke:none;" d="M132 15L120 27L118 27C117.588 21.5302 114.92 18.3027 110 16C104.957 27.4641 93.1175 30.3182 84.0394 37.6798C79.4132 41.4312 75.1884 46.1306 78 52L62 47L66 67L53 63L59 79L50 77L59 87L56 80L62 82L55 65L69 71L66 50L80 56C80.044 40.6697 101.373 27.3551 114 21L117 30L132 18L133 18C141.454 28.078 145.889 37.6273 146 51L152 45L153 45L155 56L158 54L153 42L151 42L149 47L148 47C147.963 33.6127 143.165 22.8656 132 15z"/>
<path style="fill:#939393; stroke:none;" d="M135 15L136 16L135 15z"/>
<path style="fill:#000000; stroke:none;" d="M108 16L107 21L108 21L108 16z"/>
<path style="fill:#aa9d61; stroke:none;" d="M109.333 16.6667L109.667 17.3333L109.333 16.6667z"/>
<path style="fill:#000000; stroke:none;" d="M112 16L115 18L112 16z"/>
<path style="fill:#939393; stroke:none;" d="M114 16L115 17L114 16M128 16L129 17L128 16z"/>
<path style="fill:#4b4c4c; stroke:none;" d="M136 16L135 17L141 23L136 16M115 17L118 22L115 17z"/>
<path style="fill:#707070; stroke:none;" d="M127 17L128 18L127 17z"/>
<path style="fill:#000000; stroke:none;" d="M128 17L118 21L119 26L120 26L128 17z"/>
<path style="fill:#939393; stroke:none;" d="M107 18L108 19L107 18z"/>
<path style="fill:#978c57; stroke:none;" d="M114 18L115 19L114 18M128 18L129 19L128 18z"/>
<path style="fill:#ffd14d; stroke:none;" d="M132 18L117 30L114 21C109.254 22.4429 106.091 26.7128 102 29.4799C90.8854 36.9975 80.01 40.9392 80 56L66 50L69 71L55 65L62 82L56 80L63 95C72.2183 93.8319 77.6452 104.823 81 112L82 112C81.8374 105.083 76.4664 99.5705 76.5378 93C76.6032 86.9862 80.2358 69.7936 84.564 65.5887C91.4753 58.8745 109.885 55.6338 119 56L118 58C132.909 59.5254 147.377 73.1111 148.208 89C148.587 96.2651 139.829 101.872 147 108L169 72L163 73C164.682 65.9364 164.853 57.7327 162 51L155 56L153 45L152 45L146 51C145.966 38.841 143.263 24.6521 132 18z"/>
<path style="fill:#9e9e9e; stroke:none;" d="M124 19L125 20L124 19z"/>
<path style="fill:#585132; stroke:none;" d="M106 20L103 26L106 20z"/>
<path style="fill:#000000; stroke:none;" d="M141 22L145 31L146 31L141 22z"/>
<path style="fill:#868686; stroke:none;" d="M102 24L103 25L102 24z"/>
<path style="fill:#b3a566; stroke:none;" d="M118 24L120 27L118 24z"/>
<path style="fill:#868686; stroke:none;" d="M143 24L144 25L143 24z"/>
<path style="fill:#000000; stroke:none;" d="M79 42L103 25C94.9959 28.0294 82.967 34.1702 79 42z"/>
<path style="fill:#726940; stroke:none;" d="M142 25L143 26L142 25z"/>
<path style="fill:#707070; stroke:none;" d="M96 28L97 29L96 28z"/>
<path style="fill:#939393; stroke:none;" d="M94 29L95 30L94 29z"/>
<path style="fill:#8c8150; stroke:none;" d="M97 29L98 30L97 29z"/>
<path style="fill:#726940; stroke:none;" d="M95 30L96 31L95 30z"/>
<path style="fill:#5b5b5b; stroke:none;" d="M146 30L147 31L146 30z"/>
<path style="fill:#2a2a2b; stroke:none;" d="M146 31L147 37L148 37L146 31z"/>
<path style="fill:#707070; stroke:none;" d="M89 32L90 33L89 32z"/>
<path style="fill:#9e9e9e; stroke:none;" d="M147 32L148 33L147 32z"/>
<path style="fill:#8c8150; stroke:none;" d="M90 33L91 34L90 33z"/>
<path style="fill:#707070; stroke:none;" d="M148.333 35.6667L148.667 36.3333L148.333 35.6667z"/>
<path style="fill:#939393; stroke:none;" d="M83 36L84 37L83 36z"/>
<path style="fill:#5b5b5b; stroke:none;" d="M82 37L83 38L82 37z"/>
<path style="fill:#aa9d61; stroke:none;" d="M147.333 37.6667L147.667 38.3333L147.333 37.6667z"/>
<path style="fill:#000000; stroke:none;" d="M148 37L148 47L149 47L151 42L148 37z"/>
<path style="fill:#b6b6b6; stroke:none;" d="M149 39L149 42L151 41L151 40L149 39z"/>
<path style="fill:#2c2c16; stroke:none;" d="M151 39L150 42C152.566 41.4493 152.86 40.8602 151 39z"/>
<path style="fill:#585132; stroke:none;" d="M78 41L78 44L80 43L80 42L78 41z"/>
<path style="fill:#000000; stroke:none;" d="M153 41L157 52L158 52L160 47L161 47L166 58L167 58C166.427 52.4322 164.091 47.6029 159 45L158 50L157 50L153 41z"/>
<path style="fill:#9e9e9e; stroke:none;" d="M77 42L78 43L77 42z"/>
<path style="fill:#000000; stroke:none;" d="M77 43C72.4722 49.5282 66.6964 46.5307 60 45L64 65L62 47L78 52L77 43z"/>
<path style="fill:#9e9e9e; stroke:none;" d="M155 43L156 44L155 43z"/>
<path style="fill:#5b5b5b; stroke:none;" d="M159 44L160 45L159 44z"/>
<path style="fill:#707070; stroke:none;" d="M62 45L63 46L62 45z"/>
<path style="fill:#5b5b5b; stroke:none;" d="M60 46L61 47L60 46z"/>
<path style="fill:#939393; stroke:none;" d="M65.6667 46.3333L66.3333 46.6667L65.6667 46.3333z"/>
<path style="fill:#5b5b5b; stroke:none;" d="M71 47L72 48L71 47z"/>
<path style="fill:#7b7b7b; stroke:none;" d="M158 47L159 48L158 47z"/>
<path style="fill:#fff195; stroke:none;" d="M160 47L158 53L162 51L163 73L169 72L167 77L168 77L173 69L165 70C166.105 61.2564 167.068 53.5311 160 47z"/>
<path style="fill:#bcae6c; stroke:none;" d="M67 48L67 49L71 49L67 48z"/>
<path style="fill:#7b7b7b; stroke:none;" d="M163 48L164 49L163 48z"/>
<path style="fill:#5b5b5b; stroke:none;" d="M157 49L158 50L157 49z"/>
<path style="fill:#bcae6c; stroke:none;" d="M63 50L63 64L64 64L63 50z"/>
<path style="fill:#726940; stroke:none;" d="M156 51L157 52L156 51z"/>
<path style="fill:#bcae6c; stroke:none;" d="M156.667 52.3333L157.333 52.6667L156.667 52.3333z"/>
<path style="fill:#d3d3d3; stroke:none;" d="M61 54L61 59L62 59L61 54z"/>
<path style="fill:#fcb937; stroke:none;" d="M82 111L83 111C84.1176 103.834 78.7589 100.585 77.9637 94C77.306 88.5531 82.554 70.3946 86.5633 66.5995C89.3459 63.9656 95.4384 63.4649 99 61.9884C104.87 59.5552 110.517 54.8442 116 60L120 59L119 56C108.956 55.214 103.286 58.4121 94 61.6551C91.029 62.6926 86.0874 63.1235 83.9375 65.5887C79.831 70.2977 76.4257 86.7633 76.2894 93C76.1513 99.3156 81.3502 104.656 82 111z"/>
<path style="fill:#8c8150; stroke:none;" d="M167 56L166 63L167 63L167 56z"/>
<path style="fill:#000000; stroke:none;" d="M86 68L110 59L133 63L133 62L116 60C111.453 53.6965 89.925 62.7735 86 68z"/>
<path style="fill:#9d7423; stroke:none;" d="M120 58L120 59L123 59L120 58z"/>
<path style="fill:#e1a057; stroke:none;" d="M81 86L82 86C84.156 81.1362 84.9227 73.3938 88.7022 69.564C98.4938 59.642 129.65 58.6247 137 71L138 71C133.955 57.5337 117.64 60.8456 107 62L107 61L110 60C106.065 58.9209 102.592 61.5914 99 63.1273C86.5984 68.4294 84.1391 72.4313 81 86z"/>
<path style="fill:#000000; stroke:none;" d="M167 59L166 67L167 67L167 59M51 60L52 67L53 67L52 62L61 64L61 63L51 60z"/>
<path style="fill:#9e7241; stroke:none;" d="M107 61L107 62L111 62L107 61z"/>
<path style="fill:#5b5b5b; stroke:none;" d="M54 61L55 62L54 61z"/>
<path style="fill:#fccd92; stroke:none;" d="M83 115L77 106L76 106L74 114L82 119C74.133 114.696 73.4981 114.187 74 105L70 106L69 103L67 103L65 107C64.7936 101.384 67.8968 100.216 73 101C67.3107 93.5332 61.0483 97.1595 62.4406 106C63.6656 113.779 77.2302 126.747 85 127L84 121L85 121C86.6492 128.125 89.9202 134.533 93.2585 141C95.606 145.548 98.2331 150.02 101.468 154C103.741 156.797 106.287 159.441 109 161.815C118.475 170.104 124.938 165.415 130.946 156C138.637 143.948 140.856 121.281 152 113L146 126L150 125C150.648 116.586 170.817 104.404 162.933 93.6042C155.848 83.8983 149.169 112.689 143.923 108.543C138.46 104.226 146.437 95.2103 146.771 90C147.219 82.9962 140.243 73.2823 135.942 68.044C127.641 57.9324 98.0277 60.9583 88.7022 68.9383C84.6266 72.4258 80.85 85.7663 79.6281 91C78.2712 96.8115 82.6463 99.9466 84.2029 105C85.1843 108.186 83.4746 111.815 83 115z"/>
<path style="fill:#aa9d61; stroke:none;" d="M52.6667 62.3333L53.3333 62.6667L52.6667 62.3333z"/>
<path style="fill:#c3c3c3; stroke:none;" d="M57 62L57 63L60 63L57 62z"/>
<path style="fill:#75561a; stroke:none;" d="M97 62L98 63L97 62z"/>
<path style="fill:#47350f; stroke:none;" d="M132 63L137 65L132 63z"/>
<path style="fill:#939393; stroke:none;" d="M51.3333 63.6667L51.6667 64.3333L51.3333 63.6667z"/>
<path style="fill:#847a4b; stroke:none;" d="M56 63L57 64L56 63z"/>
<path style="fill:#474126; stroke:none;" d="M61.3333 63.6667L61.6667 64.3333L61.3333 63.6667z"/>
<path style="fill:#978c57; stroke:none;" d="M59.6667 64.3333L60.3333 64.6667L59.6667 64.3333z"/>
<path style="fill:#474126; stroke:none;" d="M64 64L66 67L64 64z"/>
<path style="fill:#9e9e9e; stroke:none;" d="M167.333 64.6667L167.667 65.3333L167.333 64.6667z"/>
<path style="fill:#978c57; stroke:none;" d="M63 65L64 66L63 65z"/>
<path style="fill:#9d7423; stroke:none;" d="M86 65L86 66L89 66L86 65z"/>
<path style="fill:#000000; stroke:none;" d="M136 65L146.883 88.7145L144 100L145 100C149.829 87.4814 145.783 74.6503 136 65z"/>
<path style="fill:#413c25; stroke:none;" d="M53 66L52 68L54 68L53 66z"/>
<path style="fill:#624815; stroke:none;" d="M85.3333 66.6667L85.6667 67.3333L85.3333 66.6667z"/>
<path style="fill:#343434; stroke:none;" d="M165 66L166 70L167 70L165 66z"/>
<path style="fill:#7b7b7b; stroke:none;" d="M169.667 67.3333L170.333 67.6667L169.667 67.3333z"/>
<path style="fill:#2a2a2b; stroke:none;" d="M171 67L173 71L174 71L176 67L171 67z"/>
<path style="fill:#000000; stroke:none;" d="M53 68L55 76L47 76L61 94L62 94L49 77L59 79L53 68z"/>
<path style="fill:#2b1900; stroke:none;" d="M85 68L83 75L85 68z"/>
<path style="fill:#000000; stroke:none;" d="M165.333 68.6667L165.667 69.3333L165.333 68.6667M167 68L167 69L171 69L167 68M115 76L125 76C123.747 67.9725 116.57 68.3105 115 76z"/>
<path style="fill:#bcae6c; stroke:none;" d="M167.667 69.3333L168.333 69.6667L167.667 69.3333z"/>
<path style="fill:#868686; stroke:none;" d="M174 69L175 70L174 69z"/>
<path style="fill:#fec744; stroke:none;" d="M118 73L123 73C120.85 70.9251 119.795 70.4401 118 73z"/>
<path style="fill:#000000; stroke:none;" d="M172 70L168 78L169 78L172 70z"/>
<path style="fill:#7b7b7b; stroke:none;" d="M53 71L54 72L53 71z"/>
<path style="fill:#a98a63; stroke:none;" d="M98 71L98 72L101 72L98 71z"/>
<path style="fill:#78591b; stroke:none;" d="M140 71L141 72L140 71z"/>
<path style="fill:#000000; stroke:none;" d="M94 81L102 77L102 76L95 78C98.7801 73.457 100.913 73.8045 106 76C101.107 68.2462 94.6325 74.0336 94 81z"/>
<path style="fill:#9d7423; stroke:none;" d="M117.333 72.6667L117.667 73.3333L117.333 72.6667z"/>
<path style="fill:#847a4b; stroke:none;" d="M170 72L171 73L170 72z"/>
<path style="fill:#ffd64f; stroke:none;" d="M96 77L103 74C99.3816 73.1905 97.8064 73.7278 96 77z"/>
<path style="fill:#836a4c; stroke:none;" d="M104 73L105 74L104 73z"/>
<path style="fill:#8c661b; stroke:none;" d="M122.667 73.3333L123.333 73.6667L122.667 73.3333z"/>
<path style="fill:#3c3125; stroke:none;" d="M125 73L125 77L126 77L125 73z"/>
<path style="fill:#e1a057; stroke:none;" d="M139 73L141 76L139 73z"/>
<path style="fill:#868686; stroke:none;" d="M171 73L172 74L171 73M54 74L47 75L47 76L54 74z"/>
<path style="fill:#573e22; stroke:none;" d="M100 75L100 76L107 75L104 74L100 75z"/>
<path style="fill:#92683a; stroke:none;" d="M118 74L118 75L122 75L118 74z"/>
<path style="fill:#000000; stroke:none;" d="M83 75C79.9587 84.3501 75.808 92.731 81 102L82 102L79.7122 91L83 75z"/>
<path style="fill:#65533c; stroke:none;" d="M114.333 75.6667L114.667 76.3333L114.333 75.6667z"/>
<path style="fill:#77552e; stroke:none;" d="M116 75L117 76L116 75z"/>
<path style="fill:#9e9e9e; stroke:none;" d="M46 76L47 77L46 76z"/>
<path style="fill:#978c57; stroke:none;" d="M57 76L58 77L57 76z"/>
<path style="fill:#735e44; stroke:none;" d="M94 76L95 77L94 76z"/>
<path style="fill:#75561a; stroke:none;" d="M98 76L99 77L98 76z"/>
<path style="fill:#9e9e9e; stroke:none;" d="M47 77L48 78L47 77z"/>
<path style="fill:#726940; stroke:none;" d="M49 77L50 78L49 77z"/>
<path style="fill:#9d7423; stroke:none;" d="M95.6667 77.3333L96.3333 77.6667L95.6667 77.3333z"/>
<path style="fill:#726940; stroke:none;" d="M167 77L168 78L167 77z"/>
<path style="fill:#9a9a9a; stroke:none;" d="M48 78L49 79L48 78z"/>
<path style="fill:#726940; stroke:none;" d="M50 78L51 79L50 78z"/>
<path style="fill:#82592d; stroke:none;" d="M97 78L98 79L97 78z"/>
<path style="fill:#101519; stroke:none;" d="M167 78L163 87L164 87L167 78z"/>
<path style="fill:#868686; stroke:none;" d="M168 78L169 79L168 78z"/>
<path style="fill:#939393; stroke:none;" d="M49 79L50 80L49 79z"/>
<path style="fill:#847a4b; stroke:none;" d="M51 79L52 80L51 79z"/>
<path style="fill:#ac8c64; stroke:none;" d="M93 79L93 83L94 83L93 79z"/>
<path style="fill:#868686; stroke:none;" d="M50 80L51 81L50 80z"/>
<path style="fill:#8c8150; stroke:none;" d="M52 80L53 81L52 80z"/>
<path style="fill:#92683a; stroke:none;" d="M143 80L144 81L143 80z"/>
<path style="fill:#707070; stroke:none;" d="M51 81L52 82L51 81z"/>
<path style="fill:#92683a; stroke:none;" d="M144 82L145 83L144 82z"/>
<path style="fill:#836a4c; stroke:none;" d="M104.667 85.3333L105.333 85.6667L104.667 85.3333M121 85L122 86L121 85z"/>
<path style="fill:#000000; stroke:none;" d="M118 94L119 94L124 86C119.426 85.3423 118.384 90.2876 118 94z"/>
<path style="fill:#78591b; stroke:none;" d="M147 85L148 86L147 85M79 86L80 87L79 86z"/>
<path style="fill:#000000; stroke:none;" d="M100 97L101 97C101.583 91.3469 106.004 84.5614 109 93C109.904 89.5618 106.476 84.243 102.702 87.6227C100.221 89.8443 100.14 93.9511 100 97z"/>
<path style="fill:#735e44; stroke:none;" d="M107 86L108 87L107 86z"/>
<path style="fill:#4f4f50; stroke:none;" d="M122 86L122 87L126 89L122 86z"/>
<path style="fill:#8c8150; stroke:none;" d="M58 87L59 88L58 87z"/>
<path style="fill:#9e7241; stroke:none;" d="M80.3333 87.6667L80.6667 88.3333L80.3333 87.6667z"/>
<path style="fill:#ffffff; stroke:none;" d="M104 87C99.6068 95.7536 100.081 106.18 104 115C112.51 110.534 112.551 91.4737 104 87z"/>
<path style="fill:#868686; stroke:none;" d="M106 87L107 88L106 87z"/>
<path style="fill:#ffffff; stroke:none;" d="M121 87C117.953 95.3609 117.953 105.639 121 114C129.965 111.303 129.941 89.706 121 87z"/>
<path style="fill:#000000; stroke:none;" d="M162 87C155.477 94.1749 150.332 98.2138 147 108L143 105L141 106C148.411 115.519 151.139 100.01 155.529 95.1242C160.604 89.4777 163.822 94.5182 164 100L165 100L162 91L162 87z"/>
<path style="fill:#5b5b5b; stroke:none;" d="M163 87L164 88L163 87z"/>
<path style="fill:#707070; stroke:none;" d="M57 88L58 89L57 88M107 88L108 89L107 88M120 88L121 89L120 88z"/>
<path style="fill:#000000; stroke:none;" d="M126 88L127 95L128 95L126 88z"/>
<path style="fill:#836a4c; stroke:none;" d="M109 89L110 90L109 89z"/>
<path style="fill:#735e44; stroke:none;" d="M147 89L148 90L147 89z"/>
<path style="fill:#939393; stroke:none;" d="M162.333 89.6667L162.667 90.3333L162.333 89.6667z"/>
<path style="fill:#707070; stroke:none;" d="M108 90L109 91L108 90z"/>
<path style="fill:#b08227; stroke:none;" d="M148.333 90.6667L148.667 91.3333L148.333 90.6667z"/>
<path style="fill:#9e9e9e; stroke:none;" d="M59 91L60 92L59 91z"/>
<path style="fill:#836a4c; stroke:none;" d="M100 91L101 92L100 91z"/>
<path style="fill:#9b7e5a; stroke:none;" d="M110.333 91.6667L110.667 92.3333L110.333 91.6667z"/>
<path style="fill:#c9c9c9; stroke:none;" d="M126.333 91.6667L126.667 92.3333L126.333 91.6667z"/>
<path style="fill:#9b7e5a; stroke:none;" d="M159.667 91.3333L160.333 91.6667L159.667 91.3333z"/>
<path style="fill:#624815; stroke:none;" d="M77 92L77 95L78 95L77 92z"/>
<path style="fill:#adadad; stroke:none;" d="M101.333 92.6667L101.667 93.3333L101.333 92.6667z"/>
<path style="fill:#5b5b5b; stroke:none;" d="M117 92L119 95L117 92z"/>
<path style="fill:#735e44; stroke:none;" d="M146 92L147 93L146 92z"/>
<path style="fill:#5b5b5b; stroke:none;" d="M164 92L165 93L164 92z"/>
<path style="fill:#4f412f; stroke:none;" d="M109.667 93.3333L110.333 93.6667L109.667 93.3333M128 93L127 96L128 93z"/>
<path style="fill:#707070; stroke:none;" d="M61 94L62 95L61 94z"/>
<path style="fill:#14130a; stroke:none;" d="M62 94L62 98C67.2515 95.9452 69.5984 98.0457 74 101L72 103L72 104L73 114L74 114L76 106L77 106L83 115C84.14 110.013 86.0398 105.971 82 102L82 112L81 112C76.7905 101.892 72.6705 96.5781 62 94z"/>
<path style="fill:#9a7f30; stroke:none;" d="M64 94L64 95L68 95L64 94z"/>
<path style="fill:#a98a63; stroke:none;" d="M99.3333 94.6667L99.6667 95.3333L99.3333 94.6667z"/>
<path style="fill:#000000; stroke:none;" d="M110 94L110 108L111 108L110 94z"/>
<path style="fill:#9e9e9e; stroke:none;" d="M165 94L165 97L166 97L165 94z"/>
<path style="fill:#000000; stroke:none;" d="M117 95L117 106L118 106L117 95z"/>
<path style="fill:#d3d3d3; stroke:none;" d="M118 95L118 103L119 103L118 95z"/>
<path style="fill:#4f4f50; stroke:none;" d="M99 96L99 107L100 107L99 96z"/>
<path style="fill:#adadad; stroke:none;" d="M127 96L127 105L128 105L127 96z"/>
<path style="fill:#000000; stroke:none;" d="M128 96L128 105L129 105L128 96z"/>
<path style="fill:#9b7e5a; stroke:none;" d="M111 97L111 104L112 104L111 97z"/>
<path style="fill:#000000; stroke:none;" d="M152 105L153 105L161 100C157.3 95.0193 153.318 101.136 152 105z"/>
<path style="fill:#836a4c; stroke:none;" d="M159 97L160 98L159 97z"/>
<path style="fill:#ac8c64; stroke:none;" d="M163 97L163 100L164 100L163 97z"/>
<path style="fill:#4f412f; stroke:none;" d="M61.6667 98.3333L62.3333 98.6667L61.6667 98.3333z"/>
<path style="fill:#000000; stroke:none;" d="M61 99L64 115L65 115L61 99z"/>
<path style="fill:#322415; stroke:none;" d="M99 99L99 103L100 103L99 99z"/>
<path style="fill:#c9c9c9; stroke:none;" d="M105.667 99.3333L106.333 99.6667L105.667 99.3333z"/>
<path style="fill:#000000; stroke:none;" d="M121 99L121 105L123 105L123 99L121 99z"/>
<path style="fill:#735e44; stroke:none;" d="M143 99L144 100L143 99z"/>
<path style="fill:#939393; stroke:none;" d="M60 100L60 107L61 107L60 100z"/>
<path style="fill:#000000; stroke:none;" d="M65 104L66 104L72 102C68.8032 99.6198 66.2789 100.149 65 104z"/>
<path style="fill:#5b5b5b; stroke:none;" d="M104 100L105 101L104 100z"/>
<path style="fill:#000000; stroke:none;" d="M105 100L105 106L107 106L107 100L105 100z"/>
<path style="fill:#5b5b5b; stroke:none;" d="M123 100L124 101L123 100z"/>
<path style="fill:#2b1900; stroke:none;" d="M143 100L141 105L143 100z"/>
<path style="fill:#4b4c4c; stroke:none;" d="M163.667 100.333L164.333 100.667L163.667 100.333z"/>
<path style="fill:#92683a; stroke:none;" d="M67 101L67 102L70 102L67 101z"/>
<path style="fill:#a98a63; stroke:none;" d="M72.6667 101.333L73.3333 101.667L72.6667 101.333z"/>
<path style="fill:#735e44; stroke:none;" d="M82 101L83 102L82 101z"/>
<path style="fill:#000000; stroke:none;" d="M163 101C161.547 109.44 153.62 122.161 146 126L149 115L148 115L138.573 141L128 161C137.532 153.102 138.657 140.217 144.558 130.144C147.574 124.996 154.608 119.568 158.787 114.91C162.01 111.319 164.695 105.739 163 101z"/>
<path style="fill:#b6b6b6; stroke:none;" d="M164.333 101.667L164.667 102.333L164.333 101.667z"/>
<path style="fill:#e1a057; stroke:none;" d="M66 104L71 104C69.2315 101.966 67.7685 101.966 66 104z"/>
<path style="fill:#92683a; stroke:none;" d="M71.3333 102.667L71.6667 103.333L71.3333 102.667z"/>
<path style="fill:#8c661b; stroke:none;" d="M143 102L144 103L143 102z"/>
<path style="fill:#9b7e5a; stroke:none;" d="M152 102L153 103L152 102z"/>
<path style="fill:#ac8c64; stroke:none;" d="M64 103L64 106L65 106L64 103z"/>
<path style="fill:#9e9e9e; stroke:none;" d="M118 103L118 106L119 106L118 103z"/>
<path style="fill:#412e18; stroke:none;" d="M153 103L155 106L153 103z"/>
<path style="fill:#65533c; stroke:none;" d="M65 104L65 107L66 107L65 104z"/>
<path style="fill:#000000; stroke:none;" d="M70 104L70 106L72 104L70 104z"/>
<path style="fill:#836a4c; stroke:none;" d="M72.6667 104.333L73.3333 104.667L72.6667 104.333z"/>
<path style="fill:#939393; stroke:none;" d="M107 104L108 105L107 104z"/>
<path style="fill:#9e9e9e; stroke:none;" d="M120 104L121 105L120 104z"/>
<path style="fill:#735e44; stroke:none;" d="M162 104L163 105L162 104z"/>
<path style="fill:#836a4c; stroke:none;" d="M85.3333 105.667L85.6667 106.333L85.3333 105.667z"/>
<path style="fill:#000000; stroke:none;" d="M100 105L100 110L101 110L100 105z"/>
<path style="fill:#adadad; stroke:none;" d="M109 105L109 108L110 108L109 105z"/>
<path style="fill:#c3c3c3; stroke:none;" d="M121.667 105.333L122.333 105.667L121.667 105.333z"/>
<path style="fill:#4f412f; stroke:none;" d="M127.667 105.333L128.333 105.667L127.667 105.333z"/>
<path style="fill:#735e44; stroke:none;" d="M142.333 105.667L142.667 106.333L142.333 105.667z"/>
<path style="fill:#836a4c; stroke:none;" d="M152 105L153 106L152 105z"/>
<path style="fill:#adadad; stroke:none;" d="M163.333 105.667L163.667 106.333L163.333 105.667z"/>
<path style="fill:#a9773f; stroke:none;" d="M62 106L62 109L63 109L62 106z"/>
<path style="fill:#ac8c64; stroke:none;" d="M74.3333 106.667L74.6667 107.333L74.3333 106.667z"/>
<path style="fill:#4f4f50; stroke:none;" d="M117 106L117 108L119 106L117 106z"/>
<path style="fill:#000000; stroke:none;" d="M127 106L127 110L128 110L127 106z"/>
<path style="fill:#ac8c64; stroke:none;" d="M128.333 106.667L128.667 107.333L128.333 106.667z"/>
<path style="fill:#75561a; stroke:none;" d="M147 106L148 107L147 106z"/>
<path style="fill:#000000; stroke:none;" d="M154 106L151 108L151 109L157 108L157 107L154 106M118 107L119 113L120 113L118 107z"/>
<path style="fill:#856e2a; stroke:none;" d="M79 108L80 109L79 108z"/>
<path style="fill:#5b5b5b; stroke:none;" d="M101.333 108.667L101.667 109.333L101.333 108.667z"/>
<path style="fill:#4f412f; stroke:none;" d="M109.667 108.333L110.333 108.667L109.667 108.333z"/>
<path style="fill:#b9966b; stroke:none;" d="M139 108L141 110L141 108L139 108z"/>
<path style="fill:#101519; stroke:none;" d="M109 109L104 115L102 110L101 110C102.523 117.301 110.784 115.786 109 109z"/>
<path style="fill:#868686; stroke:none;" d="M126 109L127 110L126 109z"/>
<path style="fill:#3c3125; stroke:none;" d="M141 109L142 110L141 109z"/>
<path style="fill:#9b7e5a; stroke:none;" d="M152 109L152 110L155 110L152 109z"/>
<path style="fill:#856e2a; stroke:none;" d="M80 110L81 111L80 110z"/>
<path style="fill:#1f1706; stroke:none;" d="M126 110L125 114L126 114L126 110z"/>
<path style="fill:#c6a173; stroke:none;" d="M142 110L144 113L142 110z"/>
<path style="fill:#b9966b; stroke:none;" d="M72.3333 111.667L72.6667 112.333L72.3333 111.667M153 111L153 113L155 111L153 111z"/>
<path style="fill:#939393; stroke:none;" d="M161 111L162 112L161 111z"/>
<path style="fill:#7b7b7b; stroke:none;" d="M62 112L63 113L62 112z"/>
<path style="fill:#4f412f; stroke:none;" d="M120 112L121 116L126 115L126 114L120 112z"/>
<path style="fill:#3c3125; stroke:none;" d="M152 112L153 113L152 112z"/>
<path style="fill:#9a9a9a; stroke:none;" d="M103 113L104 114L103 113z"/>
<path style="fill:#7b7b7b; stroke:none;" d="M124 113L125 114L124 113z"/>
<path style="fill:#65533c; stroke:none;" d="M149 116L152 113L149 116z"/>
<path style="fill:#77552e; stroke:none;" d="M158 113L159 114L158 113z"/>
<path style="fill:#868686; stroke:none;" d="M63 114L64 115L63 114z"/>
<path style="fill:#4d371f; stroke:none;" d="M64 116L67 116L66 114L64 116z"/>
<path style="fill:#836a4c; stroke:none;" d="M73 114L74 115L73 114z"/>
<path style="fill:#000000; stroke:none;" d="M74 114L82 119L74 114z"/>
<path style="fill:#836a4c; stroke:none;" d="M75 114L76 115L75 114z"/>
<path style="fill:#92683a; stroke:none;" d="M157 114L158 115L157 114z"/>
<path style="fill:#7b7b7b; stroke:none;" d="M159 114L160 115L159 114z"/>
<path style="fill:#e1a057; stroke:none;" d="M67 115L67 116L76 121L67 115z"/>
<path style="fill:#a98a63; stroke:none;" d="M74.3333 115.667L74.6667 116.333L74.3333 115.667z"/>
<path style="fill:#b9966b; stroke:none;" d="M77.6667 115.333L78.3333 115.667L77.6667 115.333z"/>
<path style="fill:#9e7241; stroke:none;" d="M107 115L108 116L107 115z"/>
<path style="fill:#000000; stroke:none;" d="M122.667 115.333L123.333 115.667L122.667 115.333z"/>
<path style="fill:#82592d; stroke:none;" d="M156 115L157 116L156 115z"/>
<path style="fill:#5b5b5b; stroke:none;" d="M158 115L159 116L158 115z"/>
<path style="fill:#9e9e9e; stroke:none;" d="M65 116L66 117L65 116z"/>
<path style="fill:#000000; stroke:none;" d="M66 116L66 117L74 121L74 120L66 116z"/>
<path style="fill:#a9773f; stroke:none;" d="M104.667 116.333L105.333 116.667L104.667 116.333z"/>
<path style="fill:#707070; stroke:none;" d="M157 116L158 117L157 116z"/>
<path style="fill:#77552e; stroke:none;" d="M153 117L154 118L153 117z"/>
<path style="fill:#9e9e9e; stroke:none;" d="M68 118L69 119L68 118z"/>
<path style="fill:#735e44; stroke:none;" d="M125 118L122 121L125 118z"/>
<path style="fill:#707070; stroke:none;" d="M154 118L155 119L154 118M70 119L71 120L70 119z"/>
<path style="fill:#000000; stroke:none;" d="M121 119L122 120L121 119z"/>
<path style="fill:#e1a057; stroke:none;" d="M150 119L150 124L151 124L150 119z"/>
<path style="fill:#000000; stroke:none;" d="M103 120L104 121L103 120z"/>
<path style="fill:#573e22; stroke:none;" d="M104.333 120.667L104.667 121.333L104.333 120.667z"/>
<path style="fill:#9b7e5a; stroke:none;" d="M105 120L105 121L108 122L105 120z"/>
<path style="fill:#735e44; stroke:none;" d="M145.333 120.667L145.667 121.333L145.333 120.667z"/>
<path style="fill:#939393; stroke:none;" d="M152 120L152 123L153 123L152 120z"/>
<path style="fill:#634727; stroke:none;" d="M73 121L76 124L77 123L73 121z"/>
<path style="fill:#000000; stroke:none;" d="M84 121C84.3375 127.536 80.768 127.889 77 123L76 123C77.8228 128.068 80.9074 129.09 86 128L99 153L100 153L84 121M105.667 121.333L106.333 121.667L105.667 121.333z"/>
<path style="fill:#836a4c; stroke:none;" d="M85 123L86 124L85 123z"/>
<path style="fill:#5b5b5b; stroke:none;" d="M76 125L77 126L76 125z"/>
<path style="fill:#634727; stroke:none;" d="M147.667 125.333L148.333 125.667L147.667 125.333z"/>
<path style="fill:#836a4c; stroke:none;" d="M111.333 126.667L111.667 127.333L111.333 126.667z"/>
<path style="fill:#868686; stroke:none;" d="M149 126L150 127L149 126z"/>
<path style="fill:#9e7241; stroke:none;" d="M80 127L80 128L84 128L80 127z"/>
<path style="fill:#9a9a9a; stroke:none;" d="M79 128L80 129L79 128z"/>
<path style="fill:#7b7b7b; stroke:none;" d="M84 128L85 129L84 128z"/>
<path style="fill:#000000; stroke:none;" d="M111 128L111 131L112 131L111 128z"/>
<path style="fill:#707070; stroke:none;" d="M144 129L145 130L144 129z"/>
<path style="fill:#ffe6ba; stroke:none;" d="M116 130L118 139L119 139L116 130z"/>
<path style="fill:#735e44; stroke:none;" d="M111 131L111 134L113 131L111 131M142 131L143 132L142 131z"/>
<path style="fill:#9e9e9e; stroke:none;" d="M87 132L88 133L87 132z"/>
<path style="fill:#707070; stroke:none;" d="M143 132L144 133L143 132z"/>
<path style="fill:#735e44; stroke:none;" d="M89 133L90 134L89 133z"/>
<path style="fill:#000000; stroke:none;" d="M112 133L112 136L113 136L112 133z"/>
<path style="fill:#868686; stroke:none;" d="M88 134L89 135L88 134z"/>
<path style="fill:#836a4c; stroke:none;" d="M90 135L91 136L90 135z"/>
<path style="fill:#868686; stroke:none;" d="M142 135L143 136L142 135z"/>
<path style="fill:#707070; stroke:none;" d="M89 136L90 137L89 136z"/>
<path style="fill:#836a4c; stroke:none;" d="M112 136L115 139L112 136M91 137L92 138L91 137z"/>
<path style="fill:#707070; stroke:none;" d="M90 138L91 139L90 138z"/>
<path style="fill:#836a4c; stroke:none;" d="M92 139L93 140L92 139z"/>
<path style="fill:#000000; stroke:none;" d="M114 139L115 140L114 139z"/>
<path style="fill:#707070; stroke:none;" d="M91 140L92 141L91 140z"/>
<path style="fill:#836a4c; stroke:none;" d="M114 140L116 142L116 140L114 140z"/>
<path style="fill:#868686; stroke:none;" d="M140 140L141 141L140 140z"/>
<path style="fill:#735e44; stroke:none;" d="M93 141L94 142L93 141z"/>
<path style="fill:#836a4c; stroke:none;" d="M138 141L139 142L138 141z"/>
<path style="fill:#868686; stroke:none;" d="M92 142L93 143L92 142z"/>
<path style="fill:#634727; stroke:none;" d="M116 142L117 143L116 142z"/>
<path style="fill:#5b5b5b; stroke:none;" d="M139 142L140 143L139 142z"/>
<path style="fill:#836a4c; stroke:none;" d="M96 146L97 147L96 146z"/>
<path style="fill:#707070; stroke:none;" d="M95 147L96 148L95 147z"/>
<path style="fill:#5b5b5b; stroke:none;" d="M97 150L98 151L97 150M135 150L136 151L135 150z"/>
<path style="fill:#ac8c64; stroke:none;" d="M117 151L117 152L121 152L117 151z"/>
<path style="fill:#836a4c; stroke:none;" d="M133 151L134 152L133 151z"/>
<path style="fill:#343434; stroke:none;" d="M100 152L100 155L101 155L100 152z"/>
<path style="fill:#836a4c; stroke:none;" d="M115 152L116 153L115 152z"/>
<path style="fill:#000000; stroke:none;" d="M116 152L116 153L122 153L116 152z"/>
<path style="fill:#9b7e5a; stroke:none;" d="M122 152L122 154L124 154L122 152z"/>
<path style="fill:#7b7b7b; stroke:none;" d="M134 152L135 153L134 152z"/>
<path style="fill:#868686; stroke:none;" d="M99 153L100 154L99 153z"/>
<path style="fill:#412e18; stroke:none;" d="M115 153L114 156L115 153z"/>
<path style="fill:#000000; stroke:none;" d="M101 154C103.179 158.673 107.702 161.459 109.972 166C116.595 179.246 106.952 192.122 100 202C103.499 200.369 106.035 196.808 109.576 195.492C118.439 192.197 129.544 196.143 137 200C132.902 194.182 127.414 190.566 127 183C111.169 190.388 112 178.349 112 166C116.976 168.784 120.145 169.191 125 166L125 181L126 181L127 162C114.559 170.455 111.488 161.388 101 154z"/>
<path style="fill:#65533c; stroke:none;" d="M119 156L119 158L121 156L119 156z"/>
<path style="fill:#000000; stroke:none;" d="M118 157L119 158L118 157z"/>
<path style="fill:#9e9e9e; stroke:none;" d="M131 157L132 158L131 157M103 158L104 159L103 158z"/>
<path style="fill:#939393; stroke:none;" d="M104 159L105 160L104 159M105 160L106 161L105 160z"/>
<path style="fill:#9a9a9a; stroke:none;" d="M106 161L107 162L106 161z"/>
<path style="fill:#343434; stroke:none;" d="M127 161L127 163L129 161L127 161z"/>
<path style="fill:#9a9a9a; stroke:none;" d="M126 164L126 181L127 181L126 164z"/>
<path style="fill:#735e44; stroke:none;" d="M112 166L112 180L113 180L115 167L112 166z"/>
<path style="fill:#836a4c; stroke:none;" d="M115 166L116 167L115 166z"/>
<path style="fill:#fccd92; stroke:none;" d="M124 166C120.365 170.018 117.904 169.513 113 168L112 185C124.004 185 129.248 178.506 124 166z"/>
<path style="fill:#ac8c64; stroke:none;" d="M117 167L117 168L120 168L117 167z"/>
<path style="fill:#4d371f; stroke:none;" d="M115.667 168.333L116.333 168.667L115.667 168.333z"/>
<path style="fill:#e1a057; stroke:none;" d="M116 169L116 170L123 169L116 169z"/>
<path style="fill:#634727; stroke:none;" d="M125 181L125 184L127 181L125 181z"/>
<path style="fill:#868686; stroke:none;" d="M110 184L110 187L111 187L110 184z"/>
<path style="fill:#77552e; stroke:none;" d="M124 184L125 185L124 184z"/>
<path style="fill:#c88e4e; stroke:none;" d="M114 185L114 186L122 186L114 185z"/>
<path style="fill:#585132; stroke:none;" d="M112.667 186.333L113.333 186.667L112.667 186.333z"/>
<path style="fill:#746a31; stroke:none;" d="M123 186L124 187L123 186z"/>
<path style="fill:#ffe767; stroke:none;" d="M110 193L127 192L126 186C119.477 187.487 112.251 185.667 110 193z"/>
<path style="fill:#9e9e9e; stroke:none;" d="M127 186L127 189L128 189L127 186z"/>
<path style="fill:#b2a24a; stroke:none;" d="M111.333 187.667L111.667 188.333L111.333 187.667z"/>
<path style="fill:#ccb954; stroke:none;" d="M116 187L116 188L121 188L116 187z"/>
<path style="fill:#746a31; stroke:none;" d="M126 189L127 190L126 189z"/>
<path style="fill:#9a833c; stroke:none;" d="M125 192L126 193L125 192z"/>
<path style="fill:#7b7b7b; stroke:none;" d="M107 193L108 194L107 193z"/>
<path style="fill:#d71e38; stroke:none;" d="M127 193C120.774 200.055 115.952 193.581 109 195.442C105.325 196.426 102.504 200.366 99 202L99 203C109.919 210.192 133.665 221.47 138 200L127 193z"/>
<path style="fill:#9a833c; stroke:none;" d="M115 194L115 195L121 195L115 194z"/>
<path style="fill:#b02737; stroke:none;" d="M112 195L112 196C117.137 197.518 122.159 197.33 127 195L112 195z"/>
<path style="fill:#c96972; stroke:none;" d="M138.333 200.667L138.667 201.333L138.333 200.667z"/>
<path style="fill:#eaa1a7; stroke:none;" d="M115.667 212.333L116.333 212.667L115.667 212.333z"/>
</svg>
